<svg width="168" height="30" viewBox="0 0 168 30" fill="none" xmlns="http://www.w3.org/2000/svg">
<path fill-rule="evenodd" clip-rule="evenodd" d="M33.628 0.208045V29.7503H35.8187V0.208045H33.628ZM62.9354 3.7448C63.5367 4.13315 64.081 4.59085 64.5676 5.11788L65.6844 3.45354C64.8542 2.67684 63.9521 2.03884 62.9783 1.53953C62.0333 1.01248 60.9883 0.624134 59.8427 0.37448C58.7259 0.124827 57.5091 0 56.1918 0C54.0727 0 52.1971 0.319003 50.5648 0.957005C48.9326 1.59501 47.6583 2.53814 46.742 3.78641C45.8542 5.00694 45.4104 6.50488 45.4104 8.28015C45.4104 9.88905 45.7827 11.1651 46.5272 12.1082C47.3003 13.0513 48.4314 13.8003 49.9205 14.3551C51.4382 14.9099 53.2709 15.4092 55.4186 15.853C57.5662 16.2968 59.3561 16.7823 60.7877 17.3093C62.2198 17.8086 63.279 18.4605 63.9663 19.2649C64.6535 20.0694 64.9971 21.1235 64.9971 22.4272C64.9971 24.3135 64.2387 25.742 62.7206 26.7129C61.2319 27.6561 59.1554 28.1276 56.4923 28.1276C55.347 28.1276 54.2445 28.0305 53.185 27.8363C52.1255 27.6144 51.1232 27.3232 50.1782 26.9626C49.2619 26.602 48.4028 26.172 47.601 25.6727C46.8279 25.1457 46.1263 24.5492 45.4963 23.8835L44.3366 25.5895C45.4247 26.5881 46.5988 27.4064 47.8587 28.0444C49.1187 28.6824 50.4646 29.1678 51.8964 29.5007C53.3282 29.8336 54.8315 30 56.4064 30C58.0387 30 59.5138 29.8336 60.8306 29.5007C62.1769 29.1678 63.3366 28.6824 64.3099 28.0444C65.2837 27.4064 66.028 26.602 66.5435 25.6311C67.0589 24.6325 67.3166 23.4813 67.3166 22.1775C67.3166 20.43 66.873 19.043 65.9851 18.0166C65.126 16.9903 63.895 16.1858 62.2911 15.6033C60.6876 14.9931 58.7836 14.466 56.5782 14.0222C54.4879 13.6061 52.7841 13.1762 51.4669 12.7323C50.1496 12.2885 49.176 11.706 48.546 10.9847C47.9447 10.2358 47.644 9.23716 47.644 7.98889C47.644 6.1304 48.3169 4.6602 49.6628 3.57837C51.0373 2.46879 53.2137 1.91401 56.1918 1.91401C57.1084 1.91401 57.9674 1.98336 58.7689 2.12205C59.5709 2.26075 60.3152 2.46879 61.0025 2.74619C61.6897 2.99584 62.334 3.32871 62.9354 3.7448Z" fill="white"/>
<path d="M84.8751 0.208045H86.765L99.6511 29.7503H97.3316L94.2903 22.6268C91.6402 24.3267 88.7805 25.2537 85.7983 25.2537C84.2358 25.2537 82.7069 24.9993 81.2241 24.5124L81.8621 22.8175C83.1572 23.2388 84.4739 23.4537 85.7983 23.4537C88.4555 23.4537 91.0815 22.5885 93.5649 20.9277L85.8201 2.7878L74.2655 29.7503H71.9031L84.8751 0.208045Z" fill="white"/>
<path d="M0 29.7503V0.208045H10.1371C13.3729 0.208045 16.0503 0.873787 18.1694 2.20527C20.3171 3.50902 21.9207 5.28431 22.9802 7.53119C24.0684 9.75037 24.6125 12.2191 24.6125 14.9376C24.6125 17.9334 24.0254 20.5409 22.8514 22.7601C21.6773 24.9792 20.0021 26.699 17.8258 27.9196C15.6494 29.1401 13.0865 29.7503 10.1371 29.7503H7.14744V27.8363H10.1371C12.8002 27.8363 15.0481 27.2677 16.8808 26.1304C18.7135 24.9931 20.088 23.4536 21.0044 21.5118C21.9493 19.5423 22.4218 17.3509 22.4218 14.9376C22.4218 12.4688 21.935 10.2635 20.9614 8.32176C20.0164 6.38005 18.6275 4.86824 16.7949 3.78641C14.9908 2.67684 12.7715 2.12205 10.1371 2.12205H2.19064V29.7503H0Z" fill="white"/>
<path d="M107.288 29.7503V0.208045H119.96C121.277 0.208045 122.465 0.471566 123.525 0.998613C124.613 1.52566 125.544 2.23301 126.317 3.12067C127.119 3.98059 127.734 4.95146 128.164 6.03327C128.622 7.11511 128.851 8.22469 128.851 9.36199C128.851 10.8322 128.55 12.2053 127.949 13.4813C127.348 14.7573 126.503 15.8253 125.415 16.6852C124.355 17.5451 123.109 18.0722 121.678 18.2663L129.281 29.7503H126.746L119.358 18.5992H113.795V16.6435H120.175C121.492 16.6435 122.637 16.2968 123.611 15.6033C124.585 14.9099 125.329 14.0083 125.844 12.8987C126.389 11.7892 126.66 10.6103 126.66 9.36199C126.66 8.08602 126.346 6.90706 125.716 5.82523C125.114 4.71567 124.298 3.82802 123.267 3.16228C122.265 2.46879 121.134 2.12205 119.874 2.12205H109.479V29.7503H107.288Z" fill="white"/>
<path d="M165.809 29.7503V4.32733L153.825 24.2164H152.365L151.897 23.4393L153.095 21.3454L165.809 0.208045H168V29.7503H165.809Z" fill="white"/>
<path d="M140.381 4.32733V29.7503H138.19V0.208045H140.381L150.18 16.499L148.986 18.6087L140.381 4.32733Z" fill="white"/>
</svg>
