<svg width="1202" height="609" viewBox="0 0 1202 609" fill="none" xmlns="http://www.w3.org/2000/svg">
<rect width="1201.9" height="609" fill="#0D0D0D"/>
<mask id="mask0" mask-type="alpha" maskUnits="userSpaceOnUse" x="0" y="0" width="602" height="305">
<rect y="0.419342" width="600.952" height="304.185" transform="rotate(-0.02 0 0.419342)" fill="#383838"/>
</mask>
<g mask="url(#mask0)">
<path d="M12.2867 311.375C6.01382 302.04 -6.50404 298.895 -16.7716 302.818" stroke="#01C461" stroke-width="3"/>
<path d="M-20.9612 128.607L243.806 360.026" stroke="white" stroke-width="3"/>
<rect x="138.172" y="50.7745" width="29.4995" height="52.7897" transform="rotate(35.5133 138.172 50.7745)" fill="#0D0D0D"/>
<path d="M209.677 140.243C220.843 141.589 231.4 134.163 235.134 123.826" stroke="#01C461" stroke-width="3"/>
<path d="M311.506 74.5734C322.672 75.9196 333.229 68.4937 336.963 58.1559" stroke="#01C461" stroke-width="3"/>
<path d="M413.335 8.90375C424.501 10.2499 435.058 2.82399 438.792 -7.5138" stroke="#01C461" stroke-width="3"/>
<path d="M158.762 173.078C169.928 174.424 180.485 166.998 184.22 156.66" stroke="#01C461" stroke-width="3"/>
<path d="M260.591 107.408C271.757 108.754 282.314 101.328 286.049 90.9907" stroke="#01C461" stroke-width="3"/>
<path d="M362.42 41.7386C373.587 43.0848 384.143 35.6588 387.878 25.321" stroke="#01C461" stroke-width="3"/>
<path d="M158.762 173.078C147.596 171.732 137.039 179.158 133.305 189.495" stroke="#01C461" stroke-width="3"/>
<path d="M260.591 107.408C249.425 106.062 238.868 113.488 235.134 123.826" stroke="#01C461" stroke-width="3"/>
<path d="M362.42 41.7386C351.254 40.3924 340.697 47.8183 336.963 58.1561" stroke="#01C461" stroke-width="3"/>
<path d="M209.677 140.243C198.51 138.897 187.954 146.323 184.219 156.661" stroke="#01C461" stroke-width="3"/>
<path d="M311.506 74.5734C300.339 73.2272 289.783 80.6532 286.048 90.991" stroke="#01C461" stroke-width="3"/>
<path d="M413.335 8.90375C402.168 7.55757 391.612 14.9835 387.877 25.3213" stroke="#01C461" stroke-width="3"/>
<rect x="257.333" y="138.827" width="26.9825" height="55.3164" transform="rotate(149.265 257.333 138.827)" fill="#0D0D0D"/>
<path d="M70.5925 39.754C75.096 50.1244 86.9024 55.512 97.7706 53.5027" stroke="#01C461" stroke-width="3"/>
<path d="M179.304 94.748C183.808 105.118 195.614 110.506 206.482 108.497" stroke="white" stroke-width="3"/>
<path d="M288.015 149.743C292.519 160.113 304.325 165.501 315.193 163.491" stroke="white" stroke-width="3"/>
<path d="M16.2369 12.2568C20.7404 22.6272 32.5468 28.0148 43.415 26.0055" stroke="#01C461" stroke-width="3"/>
<path d="M124.948 67.2508C129.452 77.6212 141.258 83.0087 152.126 80.9995" stroke="white" stroke-width="3"/>
<path d="M233.66 122.245C238.163 132.616 249.97 138.003 260.838 135.994" stroke="white" stroke-width="3"/>
<path d="M16.2369 12.2563C11.7335 1.88584 -0.072923 -3.50172 -10.9411 -1.49244" stroke="#01C461" stroke-width="3"/>
<path d="M124.948 67.2508C120.445 56.8803 108.638 51.4928 97.7701 53.5021" stroke="#01C461" stroke-width="3"/>
<path d="M233.66 122.245C229.156 111.875 217.35 106.487 206.482 108.497" stroke="white" stroke-width="3"/>
<path d="M70.5925 39.754C66.0891 29.3836 54.2827 23.9961 43.4145 26.0053" stroke="#01C461" stroke-width="3"/>
<path d="M179.304 94.748C174.801 84.3776 162.994 78.9901 152.126 80.9994" stroke="white" stroke-width="3"/>
<path d="M288.015 149.743C283.512 139.372 271.706 133.985 260.837 135.994" stroke="white" stroke-width="3"/>
<path d="M396.728 204.737C401.231 215.107 413.037 220.495 423.906 218.486" stroke="white" stroke-width="3"/>
<path d="M505.439 259.732C509.942 270.102 521.749 275.489 532.617 273.48" stroke="#01C461" stroke-width="3"/>
<path d="M342.372 177.24C346.875 187.61 358.682 192.998 369.55 190.988" stroke="white" stroke-width="3"/>
<path d="M451.083 232.234C455.587 242.605 467.393 247.992 478.261 245.983" stroke="#01C461" stroke-width="3"/>
<path d="M559.794 287.229C564.298 297.599 576.104 302.987 586.972 300.977" stroke="#01C461" stroke-width="3"/>
<path d="M342.372 177.24C337.868 166.869 326.062 161.482 315.194 163.491" stroke="white" stroke-width="3"/>
<path d="M451.083 232.234C446.58 221.864 434.773 216.476 423.905 218.486" stroke="white" stroke-width="3"/>
<path d="M559.794 287.229C555.291 276.858 543.484 271.471 532.616 273.48" stroke="#01C461" stroke-width="3"/>
<path d="M396.728 204.737C392.224 194.367 380.418 188.979 369.55 190.988" stroke="white" stroke-width="3"/>
<path d="M505.439 259.732C500.935 249.361 489.129 243.974 478.261 245.983" stroke="#01C461" stroke-width="3"/>
<path d="M614.151 314.726C609.647 304.355 597.841 298.968 586.972 300.977" stroke="#01C461" stroke-width="3"/>
<rect x="458.851" y="254.228" width="26.5915" height="48.5555" transform="rotate(-178.984 458.851 254.228)" fill="#0D0D0D"/>
<rect x="149.955" y="47.3658" width="24.3215" height="54.7504" transform="rotate(52.3843 149.955 47.3658)" fill="#0D0D0D"/>
<path d="M77.501 176.864C87.9487 173.009 93.7563 161.724 92.2034 150.96" stroke="white" stroke-width="3"/>
<path d="M136.311 73.2481C146.758 69.3928 152.566 58.1082 151.013 47.3439" stroke="white" stroke-width="3"/>
<path d="M106.906 125.056C117.353 121.201 123.161 109.916 121.608 99.1517" stroke="white" stroke-width="3"/>
<path d="M165.715 21.4392C176.163 17.5839 181.971 6.29925 180.418 -4.46505" stroke="white" stroke-width="3"/>
<path d="M106.906 125.056C96.4581 128.911 90.6504 140.196 92.2034 150.96" stroke="white" stroke-width="3"/>
<path d="M165.715 21.4392C155.268 25.2945 149.46 36.5792 151.013 47.3435" stroke="white" stroke-width="3"/>
<path d="M77.501 176.864C67.0533 180.719 61.2456 192.004 62.7986 202.768" stroke="white" stroke-width="3"/>
<path d="M136.311 73.2481C125.863 77.1034 120.055 88.3881 121.608 99.1524" stroke="white" stroke-width="3"/>
<path d="M425.732 314.166C434.692 307.369 437.115 294.691 432.61 284.665" stroke="white" stroke-width="3"/>
<path d="M453.243 196.163C462.204 189.366 464.627 176.688 460.122 166.662" stroke="white" stroke-width="3"/>
<path d="M439.542 255.177C448.503 248.379 450.926 235.702 446.421 225.676" stroke="white" stroke-width="3"/>
<path d="M480.757 78.1601C489.718 71.3626 492.14 58.6851 487.635 48.6592" stroke="white" stroke-width="3"/>
<path d="M467.001 137.162C475.961 130.364 478.384 117.687 473.879 107.661" stroke="white" stroke-width="3"/>
<path d="M439.488 255.165C430.527 261.962 428.105 274.64 432.61 284.666" stroke="white" stroke-width="3"/>
<path d="M467.001 137.161C458.04 143.959 455.618 156.636 460.123 166.662" stroke="white" stroke-width="3"/>
<path d="M453.3 196.175C444.34 202.972 441.917 215.65 446.422 225.676" stroke="white" stroke-width="3"/>
<path d="M480.757 78.1601C471.796 84.9576 469.374 97.6351 473.879 107.661" stroke="white" stroke-width="3"/>
<path d="M372.769 -52.7045L607.364 152.3" stroke="#01C461" stroke-width="3"/>
<path d="M478.265 48.7145L495.674 63.8407" stroke="black" stroke-width="10"/>
</g>
<mask id="mask1" mask-type="alpha" maskUnits="userSpaceOnUse" x="0" y="304" width="602" height="305">
<rect y="304.815" width="600.952" height="304.185" transform="rotate(-0.02 0 304.815)" fill="#383838"/>
</mask>
<g mask="url(#mask1)">
<path d="M12.2867 615.77C6.01382 606.435 -6.50404 603.29 -16.7716 607.213" stroke="#01C461" stroke-width="3"/>
<path d="M-20.9612 433.003L243.806 664.421" stroke="white" stroke-width="3"/>
<rect x="138.172" y="355.17" width="29.4995" height="52.7897" transform="rotate(35.5133 138.172 355.17)" fill="#0D0D0D"/>
<path d="M209.677 444.638C220.843 445.984 231.4 438.559 235.134 428.221" stroke="#01C461" stroke-width="3"/>
<path d="M311.506 378.969C322.672 380.315 333.229 372.889 336.963 362.551" stroke="#01C461" stroke-width="3"/>
<path d="M413.335 313.299C424.501 314.645 435.058 307.219 438.792 296.881" stroke="#01C461" stroke-width="3"/>
<path d="M158.762 477.473C169.928 478.819 180.485 471.393 184.22 461.056" stroke="#01C461" stroke-width="3"/>
<path d="M260.591 411.803C271.757 413.15 282.314 405.724 286.049 395.386" stroke="#01C461" stroke-width="3"/>
<path d="M362.42 346.134C373.587 347.48 384.143 340.054 387.878 329.716" stroke="#01C461" stroke-width="3"/>
<path d="M158.762 477.473C147.596 476.127 137.039 483.553 133.305 493.891" stroke="#01C461" stroke-width="3"/>
<path d="M260.591 411.803C249.425 410.457 238.868 417.883 235.134 428.221" stroke="#01C461" stroke-width="3"/>
<path d="M362.42 346.134C351.254 344.788 340.697 352.214 336.963 362.551" stroke="#01C461" stroke-width="3"/>
<path d="M209.677 444.638C198.51 443.292 187.954 450.718 184.219 461.056" stroke="#01C461" stroke-width="3"/>
<path d="M311.506 378.969C300.339 377.622 289.783 385.048 286.048 395.386" stroke="#01C461" stroke-width="3"/>
<path d="M413.335 313.299C402.168 311.953 391.612 319.379 387.877 329.716" stroke="#01C461" stroke-width="3"/>
<rect x="257.333" y="443.223" width="26.9825" height="55.3164" transform="rotate(149.265 257.333 443.223)" fill="#0D0D0D"/>
<path d="M70.5927 344.149C75.0961 354.52 86.9025 359.907 97.7707 357.898" stroke="#01C461" stroke-width="3"/>
<path d="M179.304 399.143C183.808 409.514 195.614 414.901 206.482 412.892" stroke="white" stroke-width="3"/>
<path d="M288.016 454.138C292.519 464.508 304.325 469.896 315.194 467.887" stroke="white" stroke-width="3"/>
<path d="M16.2371 316.652C20.7405 327.023 32.5469 332.41 43.4151 330.401" stroke="#01C461" stroke-width="3"/>
<path d="M124.948 371.646C129.452 382.017 141.258 387.404 152.126 385.395" stroke="white" stroke-width="3"/>
<path d="M233.66 426.641C238.163 437.011 249.97 442.399 260.838 440.389" stroke="white" stroke-width="3"/>
<path d="M16.2371 316.652C11.7336 306.281 -0.0728009 300.894 -10.941 302.903" stroke="#01C461" stroke-width="3"/>
<path d="M124.948 371.646C120.445 361.276 108.638 355.888 97.7702 357.897" stroke="#01C461" stroke-width="3"/>
<path d="M233.66 426.641C229.156 416.27 217.35 410.883 206.482 412.892" stroke="white" stroke-width="3"/>
<path d="M70.5927 344.149C66.0892 333.779 54.2828 328.391 43.4146 330.401" stroke="#01C461" stroke-width="3"/>
<path d="M179.304 399.143C174.801 388.773 162.994 383.385 152.126 385.395" stroke="white" stroke-width="3"/>
<path d="M288.016 454.138C283.512 443.767 271.706 438.38 260.837 440.389" stroke="white" stroke-width="3"/>
<path d="M396.728 509.132C401.231 519.503 413.038 524.89 423.906 522.881" stroke="white" stroke-width="3"/>
<path d="M505.439 564.127C509.942 574.497 521.749 579.885 532.617 577.875" stroke="#01C461" stroke-width="3"/>
<path d="M342.372 481.635C346.876 492.005 358.682 497.393 369.55 495.384" stroke="white" stroke-width="3"/>
<path d="M451.083 536.629C455.587 547 467.393 552.387 478.261 550.378" stroke="#01C461" stroke-width="3"/>
<path d="M559.795 591.624C564.298 601.994 576.104 607.382 586.973 605.373" stroke="#01C461" stroke-width="3"/>
<path d="M342.372 481.635C337.869 471.264 326.062 465.877 315.194 467.886" stroke="white" stroke-width="3"/>
<path d="M451.083 536.629C446.58 526.259 434.773 520.871 423.905 522.881" stroke="white" stroke-width="3"/>
<path d="M559.795 591.624C555.291 581.254 543.485 575.866 532.617 577.875" stroke="#01C461" stroke-width="3"/>
<path d="M396.728 509.132C392.224 498.762 380.418 493.374 369.55 495.383" stroke="white" stroke-width="3"/>
<path d="M505.439 564.127C500.936 553.756 489.129 548.369 478.261 550.378" stroke="#01C461" stroke-width="3"/>
<path d="M614.151 619.121C609.647 608.75 597.841 603.363 586.973 605.372" stroke="#01C461" stroke-width="3"/>
<rect x="458.851" y="558.623" width="26.5915" height="48.5555" transform="rotate(-178.984 458.851 558.623)" fill="#0D0D0D"/>
<rect x="149.955" y="351.761" width="24.3215" height="54.7504" transform="rotate(52.3843 149.955 351.761)" fill="#0D0D0D"/>
<path d="M77.501 481.259C87.9487 477.404 93.7563 466.119 92.2034 455.355" stroke="white" stroke-width="3"/>
<path d="M136.311 377.643C146.758 373.788 152.566 362.503 151.013 351.739" stroke="white" stroke-width="3"/>
<path d="M106.906 429.451C117.353 425.596 123.161 414.311 121.608 403.547" stroke="white" stroke-width="3"/>
<path d="M165.715 325.834C176.163 321.979 181.971 310.694 180.418 299.93" stroke="white" stroke-width="3"/>
<path d="M106.906 429.451C96.4581 433.306 90.6504 444.591 92.2034 455.355" stroke="white" stroke-width="3"/>
<path d="M165.715 325.834C155.268 329.69 149.46 340.974 151.013 351.739" stroke="white" stroke-width="3"/>
<path d="M77.501 481.259C67.0533 485.114 61.2456 496.399 62.7986 507.163" stroke="white" stroke-width="3"/>
<path d="M136.311 377.643C125.863 381.499 120.055 392.783 121.608 403.548" stroke="white" stroke-width="3"/>
<path d="M425.732 618.561C434.692 611.764 437.115 599.086 432.61 589.06" stroke="white" stroke-width="3"/>
<path d="M453.243 500.558C462.204 493.761 464.627 481.083 460.122 471.057" stroke="white" stroke-width="3"/>
<path d="M439.542 559.572C448.503 552.775 450.926 540.097 446.421 530.071" stroke="white" stroke-width="3"/>
<path d="M480.757 382.555C489.718 375.758 492.14 363.08 487.635 353.054" stroke="white" stroke-width="3"/>
<path d="M467.001 441.557C475.961 434.759 478.384 422.082 473.879 412.056" stroke="white" stroke-width="3"/>
<path d="M439.488 559.56C430.527 566.357 428.105 579.035 432.61 589.061" stroke="white" stroke-width="3"/>
<path d="M467.001 441.557C458.04 448.354 455.618 461.032 460.123 471.058" stroke="white" stroke-width="3"/>
<path d="M453.3 500.57C444.34 507.368 441.917 520.045 446.422 530.071" stroke="white" stroke-width="3"/>
<path d="M480.757 382.555C471.796 389.353 469.374 402.03 473.879 412.056" stroke="white" stroke-width="3"/>
<path d="M372.769 251.691L607.364 456.696" stroke="#01C461" stroke-width="3"/>
<path d="M478.265 353.11L495.674 368.236" stroke="black" stroke-width="10"/>
</g>
<mask id="mask2" mask-type="alpha" maskUnits="userSpaceOnUse" x="600" y="0" width="602" height="305">
<rect x="600.846" y="0.209747" width="600.952" height="304.185" transform="rotate(-0.02 600.846 0.209747)" fill="#383838"/>
</mask>
<g mask="url(#mask2)">
<path d="M613.133 311.165C606.86 301.83 594.342 298.685 584.075 302.608" stroke="#01C461" stroke-width="3"/>
<path d="M579.885 128.398L844.652 359.816" stroke="white" stroke-width="3"/>
<rect x="739.019" y="50.5649" width="29.4995" height="52.7897" transform="rotate(35.5133 739.019 50.5649)" fill="#0D0D0D"/>
<path d="M810.523 140.033C821.689 141.38 832.246 133.954 835.98 123.616" stroke="#01C461" stroke-width="3"/>
<path d="M912.352 74.3638C923.518 75.71 934.075 68.284 937.809 57.9463" stroke="#01C461" stroke-width="3"/>
<path d="M1014.18 8.69415C1025.35 10.0403 1035.9 2.6144 1039.64 -7.72339" stroke="#01C461" stroke-width="3"/>
<path d="M759.608 172.868C770.775 174.214 781.331 166.789 785.066 156.451" stroke="#01C461" stroke-width="3"/>
<path d="M861.437 107.199C872.604 108.545 883.16 101.119 886.895 90.7811" stroke="#01C461" stroke-width="3"/>
<path d="M963.266 41.529C974.433 42.8752 984.989 35.4492 988.724 25.1114" stroke="#01C461" stroke-width="3"/>
<path d="M759.608 172.868C748.442 171.522 737.885 178.948 734.151 189.286" stroke="#01C461" stroke-width="3"/>
<path d="M861.437 107.199C850.271 105.852 839.714 113.278 835.98 123.616" stroke="#01C461" stroke-width="3"/>
<path d="M963.266 41.529C952.1 40.1828 941.543 47.6087 937.809 57.9465" stroke="#01C461" stroke-width="3"/>
<path d="M810.523 140.033C799.356 138.687 788.8 146.113 785.065 156.451" stroke="#01C461" stroke-width="3"/>
<path d="M912.352 74.3638C901.185 73.0176 890.629 80.4436 886.894 90.7813" stroke="#01C461" stroke-width="3"/>
<path d="M1014.18 8.69415C1003.01 7.34797 992.458 14.7739 988.723 25.1117" stroke="#01C461" stroke-width="3"/>
<rect x="858.18" y="138.618" width="26.9825" height="55.3164" transform="rotate(149.265 858.18 138.618)" fill="#0D0D0D"/>
<path d="M671.439 39.5444C675.942 49.9149 687.749 55.3024 698.617 53.2931" stroke="#01C461" stroke-width="3"/>
<path d="M780.15 94.5385C784.654 104.909 796.46 110.296 807.328 108.287" stroke="white" stroke-width="3"/>
<path d="M888.862 149.533C893.365 159.903 905.171 165.291 916.04 163.282" stroke="white" stroke-width="3"/>
<path d="M617.083 12.0472C621.587 22.4176 633.393 27.8052 644.261 25.7959" stroke="#01C461" stroke-width="3"/>
<path d="M725.794 67.0412C730.298 77.4116 742.104 82.7991 752.972 80.7899" stroke="white" stroke-width="3"/>
<path d="M834.506 122.036C839.009 132.406 850.816 137.794 861.684 135.784" stroke="white" stroke-width="3"/>
<path d="M617.083 12.0467C612.58 1.67624 600.773 -3.71132 589.905 -1.70203" stroke="#01C461" stroke-width="3"/>
<path d="M725.794 67.0412C721.291 56.6707 709.484 51.2832 698.616 53.2925" stroke="#01C461" stroke-width="3"/>
<path d="M834.506 122.036C830.003 111.665 818.196 106.278 807.328 108.287" stroke="white" stroke-width="3"/>
<path d="M671.439 39.5444C666.935 29.174 655.129 23.7865 644.261 25.7957" stroke="#01C461" stroke-width="3"/>
<path d="M780.15 94.5385C775.647 84.168 763.841 78.7805 752.972 80.7898" stroke="white" stroke-width="3"/>
<path d="M888.862 149.533C884.358 139.163 872.552 133.775 861.684 135.784" stroke="white" stroke-width="3"/>
<path d="M997.574 204.527C1002.08 214.898 1013.88 220.285 1024.75 218.276" stroke="white" stroke-width="3"/>
<path d="M1106.28 259.522C1110.79 269.892 1122.59 275.28 1133.46 273.271" stroke="#01C461" stroke-width="3"/>
<path d="M943.218 177.03C947.721 187.401 959.528 192.788 970.396 190.779" stroke="white" stroke-width="3"/>
<path d="M1051.93 232.025C1056.43 242.395 1068.24 247.783 1079.11 245.773" stroke="#01C461" stroke-width="3"/>
<path d="M1160.64 287.019C1165.14 297.39 1176.95 302.777 1187.82 300.768" stroke="#01C461" stroke-width="3"/>
<path d="M943.218 177.03C938.715 166.66 926.908 161.272 916.04 163.281" stroke="white" stroke-width="3"/>
<path d="M1051.93 232.025C1047.43 221.654 1035.62 216.267 1024.75 218.276" stroke="white" stroke-width="3"/>
<path d="M1160.64 287.019C1156.14 276.649 1144.33 271.261 1133.46 273.27" stroke="#01C461" stroke-width="3"/>
<path d="M997.574 204.527C993.07 194.157 981.264 188.769 970.396 190.779" stroke="white" stroke-width="3"/>
<path d="M1106.28 259.522C1101.78 249.151 1089.98 243.764 1079.11 245.773" stroke="#01C461" stroke-width="3"/>
<path d="M1215 314.516C1210.49 304.145 1198.69 298.758 1187.82 300.767" stroke="#01C461" stroke-width="3"/>
<rect x="1059.7" y="254.019" width="26.5915" height="48.5555" transform="rotate(-178.984 1059.7 254.019)" fill="#0D0D0D"/>
<rect x="750.801" y="47.1562" width="24.3215" height="54.7504" transform="rotate(52.3843 750.801 47.1562)" fill="#0D0D0D"/>
<path d="M678.347 176.654C688.795 172.799 694.603 161.514 693.05 150.75" stroke="white" stroke-width="3"/>
<path d="M737.157 73.0385C747.605 69.1832 753.412 57.8986 751.859 47.1343" stroke="white" stroke-width="3"/>
<path d="M707.752 124.846C718.2 120.991 724.007 109.706 722.454 98.9421" stroke="white" stroke-width="3"/>
<path d="M766.562 21.2296C777.009 17.3743 782.817 6.08966 781.264 -4.67464" stroke="white" stroke-width="3"/>
<path d="M707.752 124.846C697.304 128.702 691.497 139.986 693.05 150.751" stroke="white" stroke-width="3"/>
<path d="M766.562 21.2296C756.114 25.0849 750.306 36.3696 751.859 47.1339" stroke="white" stroke-width="3"/>
<path d="M678.347 176.654C667.899 180.51 662.092 191.794 663.645 202.559" stroke="white" stroke-width="3"/>
<path d="M737.157 73.0385C726.709 76.8938 720.901 88.1785 722.454 98.9428" stroke="white" stroke-width="3"/>
<path d="M1026.58 313.956C1035.54 307.159 1037.96 294.481 1033.46 284.455" stroke="white" stroke-width="3"/>
<path d="M1054.09 195.954C1063.05 189.156 1065.47 176.479 1060.97 166.453" stroke="white" stroke-width="3"/>
<path d="M1040.39 254.967C1049.35 248.17 1051.77 235.492 1047.27 225.466" stroke="white" stroke-width="3"/>
<path d="M1081.6 77.9505C1090.56 71.153 1092.99 58.4755 1088.48 48.4496" stroke="white" stroke-width="3"/>
<path d="M1067.85 136.952C1076.81 130.154 1079.23 117.477 1074.72 107.451" stroke="white" stroke-width="3"/>
<path d="M1040.33 254.955C1031.37 261.752 1028.95 274.43 1033.46 284.456" stroke="white" stroke-width="3"/>
<path d="M1067.85 136.952C1058.89 143.749 1056.46 156.427 1060.97 166.453" stroke="white" stroke-width="3"/>
<path d="M1054.15 195.965C1045.19 202.763 1042.76 215.44 1047.27 225.466" stroke="white" stroke-width="3"/>
<path d="M1081.6 77.9505C1072.64 84.7481 1070.22 97.4255 1074.72 107.452" stroke="white" stroke-width="3"/>
<path d="M973.615 -52.9141L1208.21 152.091" stroke="#01C461" stroke-width="3"/>
<path d="M1079.11 48.5049L1096.52 63.6311" stroke="black" stroke-width="10"/>
</g>
<mask id="mask3" mask-type="alpha" maskUnits="userSpaceOnUse" x="600" y="304" width="602" height="305">
<rect x="600.846" y="304.605" width="600.952" height="304.185" transform="rotate(-0.02 600.846 304.605)" fill="#383838"/>
</mask>
<g mask="url(#mask3)">
<path d="M613.133 615.561C606.86 606.225 594.342 603.08 584.075 607.003" stroke="#01C461" stroke-width="3"/>
<path d="M579.885 432.793L844.652 664.212" stroke="white" stroke-width="3"/>
<rect x="739.019" y="354.96" width="29.4995" height="52.7897" transform="rotate(35.5133 739.019 354.96)" fill="#0D0D0D"/>
<path d="M810.523 444.429C821.689 445.775 832.246 438.349 835.98 428.011" stroke="#01C461" stroke-width="3"/>
<path d="M912.352 378.759C923.518 380.105 934.075 372.679 937.809 362.341" stroke="#01C461" stroke-width="3"/>
<path d="M1014.18 313.089C1025.35 314.436 1035.9 307.01 1039.64 296.672" stroke="#01C461" stroke-width="3"/>
<path d="M759.608 477.264C770.775 478.61 781.331 471.184 785.066 460.846" stroke="#01C461" stroke-width="3"/>
<path d="M861.437 411.594C872.604 412.94 883.16 405.514 886.895 395.176" stroke="#01C461" stroke-width="3"/>
<path d="M963.266 345.924C974.433 347.27 984.989 339.844 988.724 329.507" stroke="#01C461" stroke-width="3"/>
<path d="M759.608 477.264C748.442 475.917 737.885 483.343 734.151 493.681" stroke="#01C461" stroke-width="3"/>
<path d="M861.437 411.594C850.271 410.248 839.714 417.674 835.98 428.011" stroke="#01C461" stroke-width="3"/>
<path d="M963.266 345.924C952.1 344.578 941.543 352.004 937.809 362.342" stroke="#01C461" stroke-width="3"/>
<path d="M810.523 444.429C799.356 443.082 788.8 450.508 785.065 460.846" stroke="#01C461" stroke-width="3"/>
<path d="M912.352 378.759C901.185 377.413 890.629 384.839 886.894 395.177" stroke="#01C461" stroke-width="3"/>
<path d="M1014.18 313.089C1003.01 311.743 992.458 319.169 988.723 329.507" stroke="#01C461" stroke-width="3"/>
<rect x="858.18" y="443.013" width="26.9825" height="55.3164" transform="rotate(149.265 858.18 443.013)" fill="#0D0D0D"/>
<path d="M671.439 343.94C675.942 354.31 687.749 359.698 698.617 357.688" stroke="#01C461" stroke-width="3"/>
<path d="M780.15 398.934C784.654 409.304 796.46 414.692 807.328 412.682" stroke="white" stroke-width="3"/>
<path d="M888.862 453.928C893.365 464.299 905.171 469.686 916.04 467.677" stroke="white" stroke-width="3"/>
<path d="M617.083 316.442C621.587 326.813 633.393 332.2 644.261 330.191" stroke="#01C461" stroke-width="3"/>
<path d="M725.794 371.436C730.298 381.807 742.104 387.194 752.972 385.185" stroke="white" stroke-width="3"/>
<path d="M834.506 426.431C839.009 436.801 850.816 442.189 861.684 440.18" stroke="white" stroke-width="3"/>
<path d="M617.083 316.442C612.58 306.071 600.773 300.684 589.905 302.693" stroke="#01C461" stroke-width="3"/>
<path d="M725.794 371.436C721.291 361.066 709.484 355.678 698.616 357.688" stroke="#01C461" stroke-width="3"/>
<path d="M834.506 426.431C830.003 416.06 818.196 410.673 807.328 412.682" stroke="white" stroke-width="3"/>
<path d="M671.439 343.94C666.935 333.569 655.129 328.182 644.261 330.191" stroke="#01C461" stroke-width="3"/>
<path d="M780.15 398.934C775.647 388.563 763.841 383.176 752.972 385.185" stroke="white" stroke-width="3"/>
<path d="M888.862 453.928C884.358 443.558 872.552 438.17 861.684 440.179" stroke="white" stroke-width="3"/>
<path d="M997.574 508.923C1002.08 519.293 1013.88 524.681 1024.75 522.671" stroke="white" stroke-width="3"/>
<path d="M1106.28 563.917C1110.79 574.288 1122.59 579.675 1133.46 577.666" stroke="#01C461" stroke-width="3"/>
<path d="M943.218 481.425C947.721 491.796 959.528 497.183 970.396 495.174" stroke="white" stroke-width="3"/>
<path d="M1051.93 536.42C1056.43 546.79 1068.24 552.178 1079.11 550.169" stroke="#01C461" stroke-width="3"/>
<path d="M1160.64 591.414C1165.14 601.785 1176.95 607.172 1187.82 605.163" stroke="#01C461" stroke-width="3"/>
<path d="M943.218 481.425C938.715 471.055 926.908 465.667 916.04 467.677" stroke="white" stroke-width="3"/>
<path d="M1051.93 536.42C1047.43 526.049 1035.62 520.662 1024.75 522.671" stroke="white" stroke-width="3"/>
<path d="M1160.64 591.414C1156.14 581.044 1144.33 575.656 1133.46 577.666" stroke="#01C461" stroke-width="3"/>
<path d="M997.574 508.923C993.07 498.552 981.264 493.165 970.396 495.174" stroke="white" stroke-width="3"/>
<path d="M1106.28 563.917C1101.78 553.547 1089.98 548.159 1079.11 550.168" stroke="#01C461" stroke-width="3"/>
<path d="M1215 618.911C1210.49 608.541 1198.69 603.153 1187.82 605.162" stroke="#01C461" stroke-width="3"/>
<rect x="1059.7" y="558.414" width="26.5915" height="48.5555" transform="rotate(-178.984 1059.7 558.414)" fill="#0D0D0D"/>
<rect x="750.801" y="351.551" width="24.3215" height="54.7504" transform="rotate(52.3843 750.801 351.551)" fill="#0D0D0D"/>
<path d="M678.347 481.049C688.795 477.194 694.603 465.909 693.05 455.145" stroke="white" stroke-width="3"/>
<path d="M737.157 377.434C747.605 373.578 753.412 362.294 751.859 351.529" stroke="white" stroke-width="3"/>
<path d="M707.752 429.242C718.2 425.386 724.007 414.102 722.454 403.337" stroke="white" stroke-width="3"/>
<path d="M766.562 325.625C777.009 321.77 782.817 310.485 781.264 299.721" stroke="white" stroke-width="3"/>
<path d="M707.752 429.242C697.304 433.097 691.497 444.382 693.05 455.146" stroke="white" stroke-width="3"/>
<path d="M766.562 325.625C756.114 329.48 750.306 340.765 751.859 351.529" stroke="white" stroke-width="3"/>
<path d="M678.347 481.049C667.899 484.905 662.092 496.189 663.645 506.954" stroke="white" stroke-width="3"/>
<path d="M737.157 377.434C726.709 381.289 720.901 392.574 722.454 403.338" stroke="white" stroke-width="3"/>
<path d="M1026.58 618.352C1035.54 611.554 1037.96 598.877 1033.46 588.851" stroke="white" stroke-width="3"/>
<path d="M1054.09 500.349C1063.05 493.551 1065.47 480.874 1060.97 470.848" stroke="white" stroke-width="3"/>
<path d="M1040.39 559.362C1049.35 552.565 1051.77 539.887 1047.27 529.861" stroke="white" stroke-width="3"/>
<path d="M1081.6 382.346C1090.56 375.548 1092.99 362.871 1088.48 352.845" stroke="white" stroke-width="3"/>
<path d="M1067.85 441.347C1076.81 434.55 1079.23 421.872 1074.72 411.846" stroke="white" stroke-width="3"/>
<path d="M1040.33 559.35C1031.37 566.148 1028.95 578.825 1033.46 588.851" stroke="white" stroke-width="3"/>
<path d="M1067.85 441.347C1058.89 448.144 1056.46 460.822 1060.97 470.848" stroke="white" stroke-width="3"/>
<path d="M1054.15 500.361C1045.19 507.158 1042.76 519.836 1047.27 529.862" stroke="white" stroke-width="3"/>
<path d="M1081.6 382.346C1072.64 389.143 1070.22 401.821 1074.72 411.847" stroke="white" stroke-width="3"/>
<path d="M973.615 251.481L1208.21 456.486" stroke="#01C461" stroke-width="3"/>
<path d="M1079.11 352.9L1096.52 368.026" stroke="black" stroke-width="10"/>
</g>
<mask id="mask4" mask-type="alpha" maskUnits="userSpaceOnUse" x="0" y="0" width="602" height="305">
<rect y="0.419342" width="600.952" height="304.185" transform="rotate(-0.02 0 0.419342)" fill="#383838"/>
</mask>
<g mask="url(#mask4)">
<path d="M12.2867 311.375C6.01382 302.04 -6.50404 298.895 -16.7716 302.818" stroke="#01C461" stroke-width="3"/>
<path d="M-20.9612 128.607L243.806 360.026" stroke="white" stroke-width="3"/>
<rect x="138.172" y="50.7745" width="29.4995" height="52.7897" transform="rotate(35.5133 138.172 50.7745)" fill="#0D0D0D"/>
<path d="M209.677 140.243C220.843 141.589 231.4 134.163 235.134 123.826" stroke="#01C461" stroke-width="3"/>
<path d="M311.506 74.5734C322.672 75.9196 333.229 68.4937 336.963 58.1559" stroke="#01C461" stroke-width="3"/>
<path d="M413.335 8.90375C424.501 10.2499 435.058 2.82399 438.792 -7.5138" stroke="#01C461" stroke-width="3"/>
<path d="M158.762 173.078C169.928 174.424 180.485 166.998 184.22 156.66" stroke="#01C461" stroke-width="3"/>
<path d="M260.591 107.408C271.757 108.754 282.314 101.328 286.049 90.9907" stroke="#01C461" stroke-width="3"/>
<path d="M362.42 41.7386C373.587 43.0848 384.143 35.6588 387.878 25.321" stroke="#01C461" stroke-width="3"/>
<path d="M158.762 173.078C147.596 171.732 137.039 179.158 133.305 189.495" stroke="#01C461" stroke-width="3"/>
<path d="M260.591 107.408C249.425 106.062 238.868 113.488 235.134 123.826" stroke="#01C461" stroke-width="3"/>
<path d="M362.42 41.7386C351.254 40.3924 340.697 47.8183 336.963 58.1561" stroke="#01C461" stroke-width="3"/>
<path d="M209.677 140.243C198.51 138.897 187.954 146.323 184.219 156.661" stroke="#01C461" stroke-width="3"/>
<path d="M311.506 74.5734C300.339 73.2272 289.783 80.6532 286.048 90.991" stroke="#01C461" stroke-width="3"/>
<path d="M413.335 8.90375C402.168 7.55757 391.612 14.9835 387.877 25.3213" stroke="#01C461" stroke-width="3"/>
<rect x="257.333" y="138.827" width="26.9825" height="55.3164" transform="rotate(149.265 257.333 138.827)" fill="#0D0D0D"/>
<path d="M70.5925 39.754C75.096 50.1244 86.9024 55.512 97.7706 53.5027" stroke="#01C461" stroke-width="3"/>
<path d="M179.304 94.748C183.808 105.118 195.614 110.506 206.482 108.497" stroke="white" stroke-width="3"/>
<path d="M288.015 149.743C292.519 160.113 304.325 165.501 315.193 163.491" stroke="white" stroke-width="3"/>
<path d="M16.2369 12.2568C20.7404 22.6272 32.5468 28.0148 43.415 26.0055" stroke="#01C461" stroke-width="3"/>
<path d="M124.948 67.2508C129.452 77.6212 141.258 83.0087 152.126 80.9995" stroke="white" stroke-width="3"/>
<path d="M233.66 122.245C238.163 132.616 249.97 138.003 260.838 135.994" stroke="white" stroke-width="3"/>
<path d="M16.2369 12.2563C11.7335 1.88584 -0.072923 -3.50172 -10.9411 -1.49244" stroke="#01C461" stroke-width="3"/>
<path d="M124.948 67.2508C120.445 56.8803 108.638 51.4928 97.7701 53.5021" stroke="#01C461" stroke-width="3"/>
<path d="M233.66 122.245C229.156 111.875 217.35 106.487 206.482 108.497" stroke="white" stroke-width="3"/>
<path d="M70.5925 39.754C66.0891 29.3836 54.2827 23.9961 43.4145 26.0053" stroke="#01C461" stroke-width="3"/>
<path d="M179.304 94.748C174.801 84.3776 162.994 78.9901 152.126 80.9994" stroke="white" stroke-width="3"/>
<path d="M288.015 149.743C283.512 139.372 271.706 133.985 260.837 135.994" stroke="white" stroke-width="3"/>
<path d="M396.728 204.737C401.231 215.107 413.037 220.495 423.906 218.486" stroke="white" stroke-width="3"/>
<path d="M505.439 259.732C509.942 270.102 521.749 275.489 532.617 273.48" stroke="#01C461" stroke-width="3"/>
<path d="M342.372 177.24C346.875 187.61 358.682 192.998 369.55 190.988" stroke="white" stroke-width="3"/>
<path d="M451.083 232.234C455.587 242.605 467.393 247.992 478.261 245.983" stroke="#01C461" stroke-width="3"/>
<path d="M559.794 287.229C564.298 297.599 576.104 302.987 586.972 300.977" stroke="#01C461" stroke-width="3"/>
<path d="M342.372 177.24C337.868 166.869 326.062 161.482 315.194 163.491" stroke="white" stroke-width="3"/>
<path d="M451.083 232.234C446.58 221.864 434.773 216.476 423.905 218.486" stroke="white" stroke-width="3"/>
<path d="M559.794 287.229C555.291 276.858 543.484 271.471 532.616 273.48" stroke="#01C461" stroke-width="3"/>
<path d="M396.728 204.737C392.224 194.367 380.418 188.979 369.55 190.988" stroke="white" stroke-width="3"/>
<path d="M505.439 259.732C500.935 249.361 489.129 243.974 478.261 245.983" stroke="#01C461" stroke-width="3"/>
<path d="M614.151 314.726C609.647 304.355 597.841 298.968 586.972 300.977" stroke="#01C461" stroke-width="3"/>
<rect x="458.851" y="254.228" width="26.5915" height="48.5555" transform="rotate(-178.984 458.851 254.228)" fill="#0D0D0D"/>
<rect x="149.955" y="47.3658" width="24.3215" height="54.7504" transform="rotate(52.3843 149.955 47.3658)" fill="#0D0D0D"/>
<path d="M77.501 176.864C87.9487 173.009 93.7563 161.724 92.2034 150.96" stroke="white" stroke-width="3"/>
<path d="M136.311 73.2481C146.758 69.3928 152.566 58.1082 151.013 47.3439" stroke="white" stroke-width="3"/>
<path d="M106.906 125.056C117.353 121.201 123.161 109.916 121.608 99.1517" stroke="white" stroke-width="3"/>
<path d="M165.715 21.4392C176.163 17.5839 181.971 6.29925 180.418 -4.46505" stroke="white" stroke-width="3"/>
<path d="M106.906 125.056C96.4581 128.911 90.6504 140.196 92.2034 150.96" stroke="white" stroke-width="3"/>
<path d="M165.715 21.4392C155.268 25.2945 149.46 36.5792 151.013 47.3435" stroke="white" stroke-width="3"/>
<path d="M77.501 176.864C67.0533 180.719 61.2456 192.004 62.7986 202.768" stroke="white" stroke-width="3"/>
<path d="M136.311 73.2481C125.863 77.1034 120.055 88.3881 121.608 99.1524" stroke="white" stroke-width="3"/>
<path d="M425.732 314.166C434.692 307.369 437.115 294.691 432.61 284.665" stroke="white" stroke-width="3"/>
<path d="M453.243 196.163C462.204 189.366 464.627 176.688 460.122 166.662" stroke="white" stroke-width="3"/>
<path d="M439.542 255.177C448.503 248.379 450.926 235.702 446.421 225.676" stroke="white" stroke-width="3"/>
<path d="M480.757 78.1601C489.718 71.3626 492.14 58.6851 487.635 48.6592" stroke="white" stroke-width="3"/>
<path d="M467.001 137.162C475.961 130.364 478.384 117.687 473.879 107.661" stroke="white" stroke-width="3"/>
<path d="M439.488 255.165C430.527 261.962 428.105 274.64 432.61 284.666" stroke="white" stroke-width="3"/>
<path d="M467.001 137.161C458.04 143.959 455.618 156.636 460.123 166.662" stroke="white" stroke-width="3"/>
<path d="M453.3 196.175C444.34 202.972 441.917 215.65 446.422 225.676" stroke="white" stroke-width="3"/>
<path d="M480.757 78.1601C471.796 84.9576 469.374 97.6351 473.879 107.661" stroke="white" stroke-width="3"/>
<path d="M372.769 -52.7045L607.364 152.3" stroke="#01C461" stroke-width="3"/>
<path d="M478.265 48.7145L495.674 63.8407" stroke="black" stroke-width="10"/>
</g>
<mask id="mask5" mask-type="alpha" maskUnits="userSpaceOnUse" x="0" y="304" width="602" height="305">
<rect y="304.815" width="600.952" height="304.185" transform="rotate(-0.02 0 304.815)" fill="#383838"/>
</mask>
<g mask="url(#mask5)">
<path d="M12.2867 615.77C6.01382 606.435 -6.50404 603.29 -16.7716 607.213" stroke="#01C461" stroke-width="3"/>
<path d="M-20.9612 433.003L243.806 664.421" stroke="white" stroke-width="3"/>
<rect x="138.172" y="355.17" width="29.4995" height="52.7897" transform="rotate(35.5133 138.172 355.17)" fill="#0D0D0D"/>
<path d="M209.677 444.638C220.843 445.984 231.4 438.559 235.134 428.221" stroke="#01C461" stroke-width="3"/>
<path d="M311.506 378.969C322.672 380.315 333.229 372.889 336.963 362.551" stroke="#01C461" stroke-width="3"/>
<path d="M413.335 313.299C424.501 314.645 435.058 307.219 438.792 296.881" stroke="#01C461" stroke-width="3"/>
<path d="M158.762 477.473C169.928 478.819 180.485 471.393 184.22 461.056" stroke="#01C461" stroke-width="3"/>
<path d="M260.591 411.803C271.757 413.15 282.314 405.724 286.049 395.386" stroke="#01C461" stroke-width="3"/>
<path d="M362.42 346.134C373.587 347.48 384.143 340.054 387.878 329.716" stroke="#01C461" stroke-width="3"/>
<path d="M158.762 477.473C147.596 476.127 137.039 483.553 133.305 493.891" stroke="#01C461" stroke-width="3"/>
<path d="M260.591 411.803C249.425 410.457 238.868 417.883 235.134 428.221" stroke="#01C461" stroke-width="3"/>
<path d="M362.42 346.134C351.254 344.788 340.697 352.214 336.963 362.551" stroke="#01C461" stroke-width="3"/>
<path d="M209.677 444.638C198.51 443.292 187.954 450.718 184.219 461.056" stroke="#01C461" stroke-width="3"/>
<path d="M311.506 378.969C300.339 377.622 289.783 385.048 286.048 395.386" stroke="#01C461" stroke-width="3"/>
<path d="M413.335 313.299C402.168 311.953 391.612 319.379 387.877 329.716" stroke="#01C461" stroke-width="3"/>
<rect x="257.333" y="443.223" width="26.9825" height="55.3164" transform="rotate(149.265 257.333 443.223)" fill="#0D0D0D"/>
<path d="M70.5927 344.149C75.0961 354.52 86.9025 359.907 97.7707 357.898" stroke="#01C461" stroke-width="3"/>
<path d="M179.304 399.143C183.808 409.514 195.614 414.901 206.482 412.892" stroke="white" stroke-width="3"/>
<path d="M288.016 454.138C292.519 464.508 304.325 469.896 315.194 467.887" stroke="white" stroke-width="3"/>
<path d="M16.2371 316.652C20.7405 327.023 32.5469 332.41 43.4151 330.401" stroke="#01C461" stroke-width="3"/>
<path d="M124.948 371.646C129.452 382.017 141.258 387.404 152.126 385.395" stroke="white" stroke-width="3"/>
<path d="M233.66 426.641C238.163 437.011 249.97 442.399 260.838 440.389" stroke="white" stroke-width="3"/>
<path d="M16.2371 316.652C11.7336 306.281 -0.0728009 300.894 -10.941 302.903" stroke="#01C461" stroke-width="3"/>
<path d="M124.948 371.646C120.445 361.276 108.638 355.888 97.7702 357.897" stroke="#01C461" stroke-width="3"/>
<path d="M233.66 426.641C229.156 416.27 217.35 410.883 206.482 412.892" stroke="white" stroke-width="3"/>
<path d="M70.5927 344.149C66.0892 333.779 54.2828 328.391 43.4146 330.401" stroke="#01C461" stroke-width="3"/>
<path d="M179.304 399.143C174.801 388.773 162.994 383.385 152.126 385.395" stroke="white" stroke-width="3"/>
<path d="M288.016 454.138C283.512 443.767 271.706 438.38 260.837 440.389" stroke="white" stroke-width="3"/>
<path d="M396.728 509.132C401.231 519.503 413.038 524.89 423.906 522.881" stroke="white" stroke-width="3"/>
<path d="M505.439 564.127C509.942 574.497 521.749 579.885 532.617 577.875" stroke="#01C461" stroke-width="3"/>
<path d="M342.372 481.635C346.876 492.005 358.682 497.393 369.55 495.384" stroke="white" stroke-width="3"/>
<path d="M451.083 536.629C455.587 547 467.393 552.387 478.261 550.378" stroke="#01C461" stroke-width="3"/>
<path d="M559.795 591.624C564.298 601.994 576.104 607.382 586.973 605.373" stroke="#01C461" stroke-width="3"/>
<path d="M342.372 481.635C337.869 471.264 326.062 465.877 315.194 467.886" stroke="white" stroke-width="3"/>
<path d="M451.083 536.629C446.58 526.259 434.773 520.871 423.905 522.881" stroke="white" stroke-width="3"/>
<path d="M559.795 591.624C555.291 581.254 543.485 575.866 532.617 577.875" stroke="#01C461" stroke-width="3"/>
<path d="M396.728 509.132C392.224 498.762 380.418 493.374 369.55 495.383" stroke="white" stroke-width="3"/>
<path d="M505.439 564.127C500.936 553.756 489.129 548.369 478.261 550.378" stroke="#01C461" stroke-width="3"/>
<path d="M614.151 619.121C609.647 608.75 597.841 603.363 586.973 605.372" stroke="#01C461" stroke-width="3"/>
<rect x="458.851" y="558.623" width="26.5915" height="48.5555" transform="rotate(-178.984 458.851 558.623)" fill="#0D0D0D"/>
<rect x="149.955" y="351.761" width="24.3215" height="54.7504" transform="rotate(52.3843 149.955 351.761)" fill="#0D0D0D"/>
<path d="M77.501 481.259C87.9487 477.404 93.7563 466.119 92.2034 455.355" stroke="white" stroke-width="3"/>
<path d="M136.311 377.643C146.758 373.788 152.566 362.503 151.013 351.739" stroke="white" stroke-width="3"/>
<path d="M106.906 429.451C117.353 425.596 123.161 414.311 121.608 403.547" stroke="white" stroke-width="3"/>
<path d="M165.715 325.834C176.163 321.979 181.971 310.694 180.418 299.93" stroke="white" stroke-width="3"/>
<path d="M106.906 429.451C96.4581 433.306 90.6504 444.591 92.2034 455.355" stroke="white" stroke-width="3"/>
<path d="M165.715 325.834C155.268 329.69 149.46 340.974 151.013 351.739" stroke="white" stroke-width="3"/>
<path d="M77.501 481.259C67.0533 485.114 61.2456 496.399 62.7986 507.163" stroke="white" stroke-width="3"/>
<path d="M136.311 377.643C125.863 381.499 120.055 392.783 121.608 403.548" stroke="white" stroke-width="3"/>
<path d="M425.732 618.561C434.692 611.764 437.115 599.086 432.61 589.06" stroke="white" stroke-width="3"/>
<path d="M453.243 500.558C462.204 493.761 464.627 481.083 460.122 471.057" stroke="white" stroke-width="3"/>
<path d="M439.542 559.572C448.503 552.775 450.926 540.097 446.421 530.071" stroke="white" stroke-width="3"/>
<path d="M480.757 382.555C489.718 375.758 492.14 363.08 487.635 353.054" stroke="white" stroke-width="3"/>
<path d="M467.001 441.557C475.961 434.759 478.384 422.082 473.879 412.056" stroke="white" stroke-width="3"/>
<path d="M439.488 559.56C430.527 566.357 428.105 579.035 432.61 589.061" stroke="white" stroke-width="3"/>
<path d="M467.001 441.557C458.04 448.354 455.618 461.032 460.123 471.058" stroke="white" stroke-width="3"/>
<path d="M453.3 500.57C444.34 507.368 441.917 520.045 446.422 530.071" stroke="white" stroke-width="3"/>
<path d="M480.757 382.555C471.796 389.353 469.374 402.03 473.879 412.056" stroke="white" stroke-width="3"/>
<path d="M372.769 251.691L607.364 456.696" stroke="#01C461" stroke-width="3"/>
<path d="M478.265 353.11L495.674 368.236" stroke="black" stroke-width="10"/>
</g>
<mask id="mask6" mask-type="alpha" maskUnits="userSpaceOnUse" x="600" y="0" width="602" height="305">
<rect x="600.846" y="0.209747" width="600.952" height="304.185" transform="rotate(-0.02 600.846 0.209747)" fill="#383838"/>
</mask>
<g mask="url(#mask6)">
<path d="M613.133 311.165C606.86 301.83 594.342 298.685 584.075 302.608" stroke="#01C461" stroke-width="3"/>
<path d="M579.885 128.398L844.652 359.816" stroke="white" stroke-width="3"/>
<rect x="739.019" y="50.5649" width="29.4995" height="52.7897" transform="rotate(35.5133 739.019 50.5649)" fill="#0D0D0D"/>
<path d="M810.523 140.033C821.689 141.38 832.246 133.954 835.98 123.616" stroke="#01C461" stroke-width="3"/>
<path d="M912.352 74.3638C923.518 75.71 934.075 68.284 937.809 57.9463" stroke="#01C461" stroke-width="3"/>
<path d="M1014.18 8.69415C1025.35 10.0403 1035.9 2.6144 1039.64 -7.72339" stroke="#01C461" stroke-width="3"/>
<path d="M759.608 172.868C770.775 174.214 781.331 166.789 785.066 156.451" stroke="#01C461" stroke-width="3"/>
<path d="M861.437 107.199C872.604 108.545 883.16 101.119 886.895 90.7811" stroke="#01C461" stroke-width="3"/>
<path d="M963.266 41.529C974.433 42.8752 984.989 35.4492 988.724 25.1114" stroke="#01C461" stroke-width="3"/>
<path d="M759.608 172.868C748.442 171.522 737.885 178.948 734.151 189.286" stroke="#01C461" stroke-width="3"/>
<path d="M861.437 107.199C850.271 105.852 839.714 113.278 835.98 123.616" stroke="#01C461" stroke-width="3"/>
<path d="M963.266 41.529C952.1 40.1828 941.543 47.6087 937.809 57.9465" stroke="#01C461" stroke-width="3"/>
<path d="M810.523 140.033C799.356 138.687 788.8 146.113 785.065 156.451" stroke="#01C461" stroke-width="3"/>
<path d="M912.352 74.3638C901.185 73.0176 890.629 80.4436 886.894 90.7813" stroke="#01C461" stroke-width="3"/>
<path d="M1014.18 8.69415C1003.01 7.34797 992.458 14.7739 988.723 25.1117" stroke="#01C461" stroke-width="3"/>
<rect x="858.18" y="138.618" width="26.9825" height="55.3164" transform="rotate(149.265 858.18 138.618)" fill="#0D0D0D"/>
<path d="M671.439 39.5444C675.942 49.9149 687.749 55.3024 698.617 53.2931" stroke="#01C461" stroke-width="3"/>
<path d="M780.15 94.5385C784.654 104.909 796.46 110.296 807.328 108.287" stroke="white" stroke-width="3"/>
<path d="M888.862 149.533C893.365 159.903 905.171 165.291 916.04 163.282" stroke="white" stroke-width="3"/>
<path d="M617.083 12.0472C621.587 22.4176 633.393 27.8052 644.261 25.7959" stroke="#01C461" stroke-width="3"/>
<path d="M725.794 67.0412C730.298 77.4116 742.104 82.7991 752.972 80.7899" stroke="white" stroke-width="3"/>
<path d="M834.506 122.036C839.009 132.406 850.816 137.794 861.684 135.784" stroke="white" stroke-width="3"/>
<path d="M617.083 12.0467C612.58 1.67624 600.773 -3.71132 589.905 -1.70203" stroke="#01C461" stroke-width="3"/>
<path d="M725.794 67.0412C721.291 56.6707 709.484 51.2832 698.616 53.2925" stroke="#01C461" stroke-width="3"/>
<path d="M834.506 122.036C830.003 111.665 818.196 106.278 807.328 108.287" stroke="white" stroke-width="3"/>
<path d="M671.439 39.5444C666.935 29.174 655.129 23.7865 644.261 25.7957" stroke="#01C461" stroke-width="3"/>
<path d="M780.15 94.5385C775.647 84.168 763.841 78.7805 752.972 80.7898" stroke="white" stroke-width="3"/>
<path d="M888.862 149.533C884.358 139.163 872.552 133.775 861.684 135.784" stroke="white" stroke-width="3"/>
<path d="M997.574 204.527C1002.08 214.898 1013.88 220.285 1024.75 218.276" stroke="white" stroke-width="3"/>
<path d="M1106.28 259.522C1110.79 269.892 1122.59 275.28 1133.46 273.271" stroke="#01C461" stroke-width="3"/>
<path d="M943.218 177.03C947.721 187.401 959.528 192.788 970.396 190.779" stroke="white" stroke-width="3"/>
<path d="M1051.93 232.025C1056.43 242.395 1068.24 247.783 1079.11 245.773" stroke="#01C461" stroke-width="3"/>
<path d="M1160.64 287.019C1165.14 297.39 1176.95 302.777 1187.82 300.768" stroke="#01C461" stroke-width="3"/>
<path d="M943.218 177.03C938.715 166.66 926.908 161.272 916.04 163.281" stroke="white" stroke-width="3"/>
<path d="M1051.93 232.025C1047.43 221.654 1035.62 216.267 1024.75 218.276" stroke="white" stroke-width="3"/>
<path d="M1160.64 287.019C1156.14 276.649 1144.33 271.261 1133.46 273.27" stroke="#01C461" stroke-width="3"/>
<path d="M997.574 204.527C993.07 194.157 981.264 188.769 970.396 190.779" stroke="white" stroke-width="3"/>
<path d="M1106.28 259.522C1101.78 249.151 1089.98 243.764 1079.11 245.773" stroke="#01C461" stroke-width="3"/>
<path d="M1215 314.516C1210.49 304.145 1198.69 298.758 1187.82 300.767" stroke="#01C461" stroke-width="3"/>
<rect x="1059.7" y="254.019" width="26.5915" height="48.5555" transform="rotate(-178.984 1059.7 254.019)" fill="#0D0D0D"/>
<rect x="750.801" y="47.1562" width="24.3215" height="54.7504" transform="rotate(52.3843 750.801 47.1562)" fill="#0D0D0D"/>
<path d="M678.347 176.654C688.795 172.799 694.603 161.514 693.05 150.75" stroke="white" stroke-width="3"/>
<path d="M737.157 73.0385C747.605 69.1832 753.412 57.8986 751.859 47.1343" stroke="white" stroke-width="3"/>
<path d="M707.752 124.846C718.2 120.991 724.007 109.706 722.454 98.9421" stroke="white" stroke-width="3"/>
<path d="M766.562 21.2296C777.009 17.3743 782.817 6.08966 781.264 -4.67464" stroke="white" stroke-width="3"/>
<path d="M707.752 124.846C697.304 128.702 691.497 139.986 693.05 150.751" stroke="white" stroke-width="3"/>
<path d="M766.562 21.2296C756.114 25.0849 750.306 36.3696 751.859 47.1339" stroke="white" stroke-width="3"/>
<path d="M678.347 176.654C667.899 180.51 662.092 191.794 663.645 202.559" stroke="white" stroke-width="3"/>
<path d="M737.157 73.0385C726.709 76.8938 720.901 88.1785 722.454 98.9428" stroke="white" stroke-width="3"/>
<path d="M1026.58 313.956C1035.54 307.159 1037.96 294.481 1033.46 284.455" stroke="white" stroke-width="3"/>
<path d="M1054.09 195.954C1063.05 189.156 1065.47 176.479 1060.97 166.453" stroke="white" stroke-width="3"/>
<path d="M1040.39 254.967C1049.35 248.17 1051.77 235.492 1047.27 225.466" stroke="white" stroke-width="3"/>
<path d="M1081.6 77.9505C1090.56 71.153 1092.99 58.4755 1088.48 48.4496" stroke="white" stroke-width="3"/>
<path d="M1067.85 136.952C1076.81 130.154 1079.23 117.477 1074.72 107.451" stroke="white" stroke-width="3"/>
<path d="M1040.33 254.955C1031.37 261.752 1028.95 274.43 1033.46 284.456" stroke="white" stroke-width="3"/>
<path d="M1067.85 136.952C1058.89 143.749 1056.46 156.427 1060.97 166.453" stroke="white" stroke-width="3"/>
<path d="M1054.15 195.965C1045.19 202.763 1042.76 215.44 1047.27 225.466" stroke="white" stroke-width="3"/>
<path d="M1081.6 77.9505C1072.64 84.7481 1070.22 97.4255 1074.72 107.452" stroke="white" stroke-width="3"/>
<path d="M973.615 -52.9141L1208.21 152.091" stroke="#01C461" stroke-width="3"/>
<path d="M1079.11 48.5049L1096.52 63.6311" stroke="black" stroke-width="10"/>
</g>
<mask id="mask7" mask-type="alpha" maskUnits="userSpaceOnUse" x="600" y="304" width="602" height="305">
<rect x="600.846" y="304.605" width="600.952" height="304.185" transform="rotate(-0.02 600.846 304.605)" fill="#383838"/>
</mask>
<g mask="url(#mask7)">
<path d="M613.133 615.561C606.86 606.225 594.342 603.08 584.075 607.003" stroke="#01C461" stroke-width="3"/>
<path d="M579.885 432.793L844.652 664.212" stroke="white" stroke-width="3"/>
<rect x="739.019" y="354.96" width="29.4995" height="52.7897" transform="rotate(35.5133 739.019 354.96)" fill="#0D0D0D"/>
<path d="M810.523 444.429C821.689 445.775 832.246 438.349 835.98 428.011" stroke="#01C461" stroke-width="3"/>
<path d="M912.352 378.759C923.518 380.105 934.075 372.679 937.809 362.341" stroke="#01C461" stroke-width="3"/>
<path d="M1014.18 313.089C1025.35 314.436 1035.9 307.01 1039.64 296.672" stroke="#01C461" stroke-width="3"/>
<path d="M759.608 477.264C770.775 478.61 781.331 471.184 785.066 460.846" stroke="#01C461" stroke-width="3"/>
<path d="M861.437 411.594C872.604 412.94 883.16 405.514 886.895 395.176" stroke="#01C461" stroke-width="3"/>
<path d="M963.266 345.924C974.433 347.27 984.989 339.844 988.724 329.507" stroke="#01C461" stroke-width="3"/>
<path d="M759.608 477.264C748.442 475.917 737.885 483.343 734.151 493.681" stroke="#01C461" stroke-width="3"/>
<path d="M861.437 411.594C850.271 410.248 839.714 417.674 835.98 428.011" stroke="#01C461" stroke-width="3"/>
<path d="M963.266 345.924C952.1 344.578 941.543 352.004 937.809 362.342" stroke="#01C461" stroke-width="3"/>
<path d="M810.523 444.429C799.356 443.082 788.8 450.508 785.065 460.846" stroke="#01C461" stroke-width="3"/>
<path d="M912.352 378.759C901.185 377.413 890.629 384.839 886.894 395.177" stroke="#01C461" stroke-width="3"/>
<path d="M1014.18 313.089C1003.01 311.743 992.458 319.169 988.723 329.507" stroke="#01C461" stroke-width="3"/>
<rect x="858.18" y="443.013" width="26.9825" height="55.3164" transform="rotate(149.265 858.18 443.013)" fill="#0D0D0D"/>
<path d="M671.439 343.94C675.942 354.31 687.749 359.698 698.617 357.688" stroke="#01C461" stroke-width="3"/>
<path d="M780.15 398.934C784.654 409.304 796.46 414.692 807.328 412.682" stroke="white" stroke-width="3"/>
<path d="M888.862 453.928C893.365 464.299 905.171 469.686 916.04 467.677" stroke="white" stroke-width="3"/>
<path d="M617.083 316.442C621.587 326.813 633.393 332.2 644.261 330.191" stroke="#01C461" stroke-width="3"/>
<path d="M725.794 371.436C730.298 381.807 742.104 387.194 752.972 385.185" stroke="white" stroke-width="3"/>
<path d="M834.506 426.431C839.009 436.801 850.816 442.189 861.684 440.18" stroke="white" stroke-width="3"/>
<path d="M617.083 316.442C612.58 306.071 600.773 300.684 589.905 302.693" stroke="#01C461" stroke-width="3"/>
<path d="M725.794 371.436C721.291 361.066 709.484 355.678 698.616 357.688" stroke="#01C461" stroke-width="3"/>
<path d="M834.506 426.431C830.003 416.06 818.196 410.673 807.328 412.682" stroke="white" stroke-width="3"/>
<path d="M671.439 343.94C666.935 333.569 655.129 328.182 644.261 330.191" stroke="#01C461" stroke-width="3"/>
<path d="M780.15 398.934C775.647 388.563 763.841 383.176 752.972 385.185" stroke="white" stroke-width="3"/>
<path d="M888.862 453.928C884.358 443.558 872.552 438.17 861.684 440.179" stroke="white" stroke-width="3"/>
<path d="M997.574 508.923C1002.08 519.293 1013.88 524.681 1024.75 522.671" stroke="white" stroke-width="3"/>
<path d="M1106.28 563.917C1110.79 574.288 1122.59 579.675 1133.46 577.666" stroke="#01C461" stroke-width="3"/>
<path d="M943.218 481.425C947.721 491.796 959.528 497.183 970.396 495.174" stroke="white" stroke-width="3"/>
<path d="M1051.93 536.42C1056.43 546.79 1068.24 552.178 1079.11 550.169" stroke="#01C461" stroke-width="3"/>
<path d="M1160.64 591.414C1165.14 601.785 1176.95 607.172 1187.82 605.163" stroke="#01C461" stroke-width="3"/>
<path d="M943.218 481.425C938.715 471.055 926.908 465.667 916.04 467.677" stroke="white" stroke-width="3"/>
<path d="M1051.93 536.42C1047.43 526.049 1035.62 520.662 1024.75 522.671" stroke="white" stroke-width="3"/>
<path d="M1160.64 591.414C1156.14 581.044 1144.33 575.656 1133.46 577.666" stroke="#01C461" stroke-width="3"/>
<path d="M997.574 508.923C993.07 498.552 981.264 493.165 970.396 495.174" stroke="white" stroke-width="3"/>
<path d="M1106.28 563.917C1101.78 553.547 1089.98 548.159 1079.11 550.168" stroke="#01C461" stroke-width="3"/>
<path d="M1215 618.911C1210.49 608.541 1198.69 603.153 1187.82 605.162" stroke="#01C461" stroke-width="3"/>
<rect x="1059.7" y="558.414" width="26.5915" height="48.5555" transform="rotate(-178.984 1059.7 558.414)" fill="#0D0D0D"/>
<rect x="750.801" y="351.551" width="24.3215" height="54.7504" transform="rotate(52.3843 750.801 351.551)" fill="#0D0D0D"/>
<path d="M678.347 481.049C688.795 477.194 694.603 465.909 693.05 455.145" stroke="white" stroke-width="3"/>
<path d="M737.157 377.434C747.605 373.578 753.412 362.294 751.859 351.529" stroke="white" stroke-width="3"/>
<path d="M707.752 429.242C718.2 425.386 724.007 414.102 722.454 403.337" stroke="white" stroke-width="3"/>
<path d="M766.562 325.625C777.009 321.77 782.817 310.485 781.264 299.721" stroke="white" stroke-width="3"/>
<path d="M707.752 429.242C697.304 433.097 691.497 444.382 693.05 455.146" stroke="white" stroke-width="3"/>
<path d="M766.562 325.625C756.114 329.48 750.306 340.765 751.859 351.529" stroke="white" stroke-width="3"/>
<path d="M678.347 481.049C667.899 484.905 662.092 496.189 663.645 506.954" stroke="white" stroke-width="3"/>
<path d="M737.157 377.434C726.709 381.289 720.901 392.574 722.454 403.338" stroke="white" stroke-width="3"/>
<path d="M1026.58 618.352C1035.54 611.554 1037.96 598.877 1033.46 588.851" stroke="white" stroke-width="3"/>
<path d="M1054.09 500.349C1063.05 493.551 1065.47 480.874 1060.97 470.848" stroke="white" stroke-width="3"/>
<path d="M1040.39 559.362C1049.35 552.565 1051.77 539.887 1047.27 529.861" stroke="white" stroke-width="3"/>
<path d="M1081.6 382.346C1090.56 375.548 1092.99 362.871 1088.48 352.845" stroke="white" stroke-width="3"/>
<path d="M1067.85 441.347C1076.81 434.55 1079.23 421.872 1074.72 411.846" stroke="white" stroke-width="3"/>
<path d="M1040.33 559.35C1031.37 566.148 1028.95 578.825 1033.46 588.851" stroke="white" stroke-width="3"/>
<path d="M1067.85 441.347C1058.89 448.144 1056.46 460.822 1060.97 470.848" stroke="white" stroke-width="3"/>
<path d="M1054.15 500.361C1045.19 507.158 1042.76 519.836 1047.27 529.862" stroke="white" stroke-width="3"/>
<path d="M1081.6 382.346C1072.64 389.143 1070.22 401.821 1074.72 411.847" stroke="white" stroke-width="3"/>
<path d="M973.615 251.481L1208.21 456.486" stroke="#01C461" stroke-width="3"/>
<path d="M1079.11 352.9L1096.52 368.026" stroke="black" stroke-width="10"/>
</g>
</svg>
