<svg width="10" height="7" viewBox="0 0 10 7" fill="none" xmlns="http://www.w3.org/2000/svg">
<path d="M9.94285 0.250116C9.90041 0.174729 9.83672 0.111589 9.75864 0.0675107C9.68056 0.0234322 9.59107 8.87956e-05 9.49981 0H0.498977C0.40789 0.0003511 0.318629 0.0238668 0.240793 0.068018C0.162957 0.112169 0.0994914 0.175286 0.0572204 0.25058C0.0149495 0.325873 -0.004527 0.410496 0.000885481 0.495347C0.00629796 0.580198 0.0363946 0.662067 0.0879389 0.73215L4.58836 6.7984C4.63423 6.86057 4.69561 6.91141 4.76722 6.94653C4.83882 6.98165 4.9185 7 4.99939 7C5.08029 7 5.15997 6.98165 5.23157 6.94653C5.30318 6.91141 5.36456 6.86057 5.41043 6.7984L9.91085 0.73215C9.9629 0.662211 9.9934 0.580294 9.99904 0.495307C10.0047 0.41032 9.98525 0.325515 9.94285 0.250116ZM4.99939 5.71301L1.45307 0.933269H8.54572L4.99939 5.71301Z" fill="#4EDFAE"/>
</svg>
