<svg width="17" height="18" viewBox="0 0 17 18" fill="none" xmlns="http://www.w3.org/2000/svg">
<path d="M10.3102 8.983L16.1727 3.13616L16.1864 3.12252L16.199 3.10786C16.404 2.86916 16.5112 2.56186 16.4991 2.24737C16.4869 1.93288 16.3562 1.63482 16.1334 1.41265C15.9107 1.19053 15.6124 1.06063 15.2982 1.04853C14.984 1.03642 14.6766 1.14299 14.4374 1.34726L14.4228 1.3598L14.4091 1.37343L8.54487 7.22196L2.68045 1.36617L2.68024 1.36595C2.44514 1.13148 2.12656 1 1.79466 1C1.46275 1 1.14418 1.13148 0.909078 1.36595C0.673934 1.60047 0.541589 1.91882 0.541589 2.25105C0.541589 2.58329 0.673934 2.90164 0.909078 3.13616L0.909291 3.13637L6.77867 8.983L0.921133 14.8178C0.797694 14.927 0.697004 15.0596 0.625002 15.208C0.549854 15.3629 0.507598 15.5317 0.500933 15.7038C0.494269 15.8759 0.523343 16.0474 0.586299 16.2077C0.649253 16.3679 0.744706 16.5134 0.86659 16.6349C0.988474 16.7565 1.13415 16.8515 1.29445 16.9142C1.45474 16.9768 1.62624 17.0057 1.79819 16.9991C1.97015 16.9924 2.13892 16.9504 2.29392 16.8757C2.44234 16.804 2.5751 16.7038 2.68456 16.5808L8.54445 10.7436L14.4091 16.5926L14.4228 16.6062L14.4374 16.6187C14.6766 16.823 14.984 16.9296 15.2982 16.9175C15.6124 16.9054 15.9107 16.7755 16.1334 16.5533C16.3562 16.3312 16.4869 16.0331 16.4991 15.7186C16.5112 15.4041 16.404 15.0968 16.199 14.8581L16.1864 14.8435L16.1727 14.8298L10.3102 8.983Z" stroke="#F15757"/>
</svg>
