<svg width="20" height="21" viewBox="0 0 20 21" fill="none" xmlns="http://www.w3.org/2000/svg">
<path d="M17.4893 5.80323H17.3568V5.71622C17.3554 4.26819 16.2324 3.09485 14.8463 3.09319H10.8017C10.7501 3.09319 10.7011 3.07061 10.6662 3.03084L9.19872 1.35328C8.72264 0.810322 8.05044 0.500621 7.34553 0.5H2.51051C1.12468 0.501657 0.00158629 1.675 0 3.12282V17.877C0.00158629 19.325 1.12468 20.4983 2.51051 20.5H17.4893C18.8753 20.4983 19.9984 19.325 20 17.877V8.42604C19.9984 6.97802 18.8753 5.80488 17.4893 5.80323V5.80323ZM2.73735 19.7575H2.51051C1.51689 19.7561 0.71185 18.915 0.71066 17.877V3.12282C0.71185 2.08475 1.51689 1.24369 2.51051 1.24245H7.34553C7.85097 1.24287 8.3328 1.46494 8.67425 1.85419L10.1418 3.53175C10.3113 3.72523 10.5506 3.83544 10.8017 3.83585H14.8463C15.8397 3.8371 16.645 4.67816 16.6462 5.71622V5.80323H7.04791C5.66188 5.80488 4.53878 6.97822 4.5372 8.42604V17.877C4.53601 18.915 3.73096 19.7563 2.73735 19.7575V19.7575ZM19.2893 17.877C19.2881 18.915 18.4831 19.7563 17.4895 19.7575H4.48584C4.97323 19.2645 5.24825 18.5859 5.24786 17.877V8.42604C5.24925 7.38798 6.05429 6.54692 7.04791 6.54568H17.4895C18.4829 6.54692 19.2881 7.38798 19.2893 8.42604V17.877Z" fill="#4CDEAD"/>
<path d="M14.75 12.7973H12.6V10.5065C12.6 10.3004 12.4434 10.1335 12.25 10.1335C12.0567 10.1335 11.9 10.3004 11.9 10.5065V12.7973H9.75002C9.55667 12.7973 9.40002 12.9642 9.40002 13.1702C9.40002 13.3762 9.55667 13.5431 9.75002 13.5431H11.9V15.8339C11.9 16.0399 12.0567 16.2068 12.25 16.2068C12.4434 16.2068 12.6 16.0399 12.6 15.8339V13.5431H14.75C14.9434 13.5431 15.1 13.3762 15.1 13.1702C15.1 12.9642 14.9434 12.7973 14.75 12.7973Z" fill="#4CDEAD"/>
</svg>
