<svg width="164" height="148" viewBox="0 0 164 148" fill="none" xmlns="http://www.w3.org/2000/svg">
<path d="M163 130.778V49.6667C163 45.3643 161.293 41.2381 158.255 38.1958C155.217 35.1536 151.097 33.4444 146.8 33.4444H92.0116C89.0025 33.4443 86.0529 32.605 83.4934 31.0205C80.934 29.436 78.8658 27.169 77.5207 24.4736L70.2793 9.97089C68.9336 7.27422 66.8642 5.00639 64.3031 3.42181C61.7421 1.83723 58.7908 0.998597 55.7803 1H17.2C12.9035 1 8.78296 2.70912 5.74487 5.75138C2.70678 8.79364 1 12.9198 1 17.2222V130.778C1 135.08 2.70678 139.206 5.74487 142.249C8.78296 145.291 12.9035 147 17.2 147H146.8C151.097 147 155.217 145.291 158.255 142.249C161.293 139.206 163 135.08 163 130.778Z" stroke="#4CDEAD" stroke-width="2" stroke-linecap="round" stroke-linejoin="round"/>
<path d="M82.0001 65.8889V90.2222M82.0001 90.2222V114.556M82.0001 90.2222H106.3M82.0001 90.2222H57.7001" stroke="#4CDEAD" stroke-width="2" stroke-linecap="round" stroke-linejoin="round"/>
</svg>
