<svg width="33" height="33" viewBox="0 0 33 33" fill="none" xmlns="http://www.w3.org/2000/svg">
<path d="M31.5301 17.8047L24.6001 14.6062V5.44186C24.5969 5.2496 24.5387 5.0623 24.4323 4.9023C24.3259 4.74231 24.1759 4.61636 24.0001 4.53947L16.5001 1.08027C16.3685 1.01919 16.2252 0.987549 16.0801 0.987549C15.9351 0.987549 15.7917 1.01919 15.6601 1.08027L8.1601 4.53947C7.98652 4.62001 7.83962 4.74878 7.73682 4.9105C7.63402 5.07222 7.57963 5.26011 7.5801 5.45189V14.6162L0.680101 17.8047C0.506521 17.8853 0.35962 18.014 0.256818 18.1758C0.154017 18.3375 0.0996274 18.5254 0.100101 18.7171V28.5232C0.0996274 28.715 0.154017 28.9029 0.256818 29.0646C0.35962 29.2263 0.506521 29.3551 0.680101 29.4356L8.1801 32.8948C8.31174 32.9559 8.45505 32.9875 8.6001 32.9875C8.74515 32.9875 8.88847 32.9559 9.0201 32.8948L16.1001 29.6261L23.1801 32.8948C23.3117 32.9559 23.4551 32.9875 23.6001 32.9875C23.7452 32.9875 23.8885 32.9559 24.0201 32.8948L31.5201 29.4356C31.6937 29.3551 31.8406 29.2263 31.9434 29.0646C32.0462 28.9029 32.1006 28.715 32.1001 28.5232V18.7171C32.1015 18.5265 32.0486 18.3393 31.9476 18.1777C31.8466 18.0161 31.7018 17.8867 31.5301 17.8047V17.8047ZM28.7201 18.7171L23.6101 21.0534L18.5001 18.7171L23.6101 16.3609L28.7201 18.7171ZM16.1001 3.0856L21.2101 5.44186L16.1001 7.79813L11.0001 5.44186L16.1001 3.0856ZM8.6001 16.3509L13.7101 18.7071L8.6001 21.0534L3.4901 18.7171L8.6001 16.3509ZM15.1001 27.8715L8.6001 30.8795L2.1001 27.8715V20.2813L8.1801 23.0587C8.30902 23.1168 8.44876 23.1468 8.5901 23.1468C8.73145 23.1468 8.87118 23.1168 9.0001 23.0587L15.0801 20.2512L15.1001 27.8715ZM9.6001 14.6062V7.01605L15.6801 9.82351C15.8117 9.88459 15.9551 9.91623 16.1001 9.91623C16.2452 9.91623 16.3885 9.88459 16.5201 9.82351L22.6001 7.01605V14.6162L16.1001 17.6242L9.6001 14.6062ZM30.1101 27.8815L23.6101 30.8895L17.1001 27.8815V20.2713L23.1901 23.0587C23.3176 23.1153 23.4556 23.1446 23.5951 23.1446C23.7346 23.1446 23.8726 23.1153 24.0001 23.0587L30.0801 20.2512L30.1101 27.8815Z" fill="black"/>
</svg>
