<svg width="20" height="21" viewBox="0 0 20 21" fill="none" xmlns="http://www.w3.org/2000/svg">
<path d="M9.99992 0.5C9.77992 0.5 9.56242 0.5075 9.34617 0.52125L9.42617 1.76876C9.80827 1.74406 10.1916 1.74406 10.5737 1.76876L10.6537 0.52125C10.436 0.507139 10.218 0.500052 9.99992 0.5V0.5ZM8.04991 0.690001C7.6174 0.776252 7.1949 0.890002 6.7849 1.0275L7.18615 2.21251C7.5449 2.09001 7.91366 1.99126 8.29116 1.91626L8.04991 0.691251V0.690001ZM13.2149 1.02875C12.8016 0.888607 12.3794 0.775862 11.9512 0.691251L11.7087 1.91626C12.0862 1.99126 12.4549 2.09126 12.8137 2.21251L13.2149 1.02875V1.02875ZM15.5562 2.18501C15.1934 1.94219 14.8151 1.72339 14.4237 1.53001L13.87 2.65001C14.2137 2.82001 14.545 3.01252 14.8612 3.22377L15.5562 2.18501V2.18501ZM5.57489 1.53001C5.18238 1.72376 4.80488 1.94251 4.44363 2.18501L5.13863 3.22252C5.45633 3.01046 5.78745 2.81923 6.12989 2.65001L5.57489 1.53001ZM3.40612 2.98127C3.07862 3.26877 2.76862 3.57877 2.48111 3.90627L3.42112 4.73128C3.67362 4.44377 3.94362 4.17377 4.23113 3.92127L3.40612 2.98127ZM17.5187 3.90627C17.2308 3.57822 16.9218 3.26923 16.5937 2.98127L15.7687 3.92127C16.0562 4.17377 16.3275 4.44377 16.5787 4.73128L17.5187 3.90627ZM18.97 6.07503C18.7766 5.68403 18.5578 5.30614 18.315 4.94378L17.2775 5.63878C17.4887 5.95503 17.68 6.28629 17.85 6.63004L18.97 6.07628V6.07503ZM1.68486 4.94378C1.44236 5.30503 1.22235 5.68253 1.02985 6.07628L2.14986 6.63004C2.31986 6.28629 2.51236 5.95503 2.72362 5.63878L1.68486 4.94378V4.94378ZM0.528598 7.28504C0.388448 7.69842 0.275702 8.12059 0.191095 8.5488L1.4161 8.7913C1.49111 8.4138 1.59111 8.04505 1.71236 7.68629L0.528598 7.28504V7.28504ZM19.81 8.55005C19.7255 8.12141 19.6127 7.69883 19.4725 7.28504L18.2875 7.68629C18.41 8.04505 18.5087 8.4138 18.5837 8.7913L19.8087 8.5488L19.81 8.55005ZM0.0210939 9.84631C-0.00703131 10.2817 -0.00703131 10.7184 0.0210939 11.1538L1.2686 11.0738C1.24391 10.6917 1.24391 10.3084 1.2686 9.92631L0.0210939 9.84631V9.84631ZM20 10.5001C20 10.282 19.9929 10.0639 19.9787 9.84631L18.7312 9.92631C18.756 10.3084 18.756 10.6917 18.7312 11.0738L19.9787 11.1538C19.9929 10.9362 20 10.7182 20 10.5001V10.5001ZM0.189845 12.4501C0.276096 12.8826 0.389847 13.3051 0.527348 13.7151L1.71236 13.3138C1.58941 12.9524 1.49045 12.5833 1.4161 12.2088L0.191095 12.4513L0.189845 12.4501ZM19.4712 13.7151C19.6112 13.3051 19.7237 12.8826 19.8087 12.4513L18.5837 12.2088C18.5087 12.5863 18.4087 12.9551 18.2875 13.3138L19.4712 13.7151V13.7151ZM1.02985 14.9251C1.22328 15.3161 1.44208 15.6939 1.68486 16.0563L2.72237 15.3613C2.5101 15.0438 2.31885 14.7126 2.14986 14.3701L1.02985 14.9238V14.9251ZM18.315 16.0563C18.5575 15.6951 18.7775 15.3176 18.97 14.9238L17.85 14.3701C17.68 14.7138 17.4875 15.0451 17.2762 15.3613L18.315 16.0563V16.0563ZM2.48111 17.0939C2.76862 17.4214 3.07862 17.7314 3.40612 18.0189L4.23113 17.0789C3.94384 16.8267 3.67326 16.5561 3.42112 16.2688L2.48111 17.0939V17.0939ZM16.5937 18.0189C16.9212 17.7314 17.2312 17.4214 17.5187 17.0939L16.5787 16.2688C16.3275 16.5563 16.0562 16.8276 15.7687 17.0789L16.5937 18.0189ZM14.425 19.4701C14.8175 19.2764 15.195 19.0576 15.5562 18.8151L14.8612 17.7776C14.5435 17.9897 14.2124 18.1809 13.87 18.3501L14.4237 19.4701H14.425ZM4.44363 18.8151C4.80488 19.0576 5.18238 19.2776 5.57614 19.4701L6.12989 18.3501C5.78729 18.1807 5.45616 17.9891 5.13863 17.7764L4.44363 18.8151V18.8151ZM6.7849 19.9714C7.1949 20.1114 7.6174 20.2239 8.04866 20.3089L8.29116 19.0839C7.91672 19.0095 7.54758 18.9105 7.18615 18.7876L6.7849 19.9714V19.9714ZM11.9499 20.3101C12.3786 20.2256 12.8012 20.1128 13.2149 19.9726L12.8137 18.7876C12.4523 18.9105 12.0831 19.0095 11.7087 19.0839L11.9512 20.3089L11.9499 20.3101ZM9.34617 20.4789C9.78155 20.507 10.2183 20.507 10.6537 20.4789L10.5737 19.2314C10.1916 19.2561 9.80827 19.2561 9.42617 19.2314L9.34617 20.4789V20.4789ZM10.6249 6.12503C10.6249 5.95927 10.5591 5.8003 10.4419 5.68309C10.3247 5.56588 10.1657 5.50003 9.99992 5.50003C9.83416 5.50003 9.67519 5.56588 9.55798 5.68309C9.44077 5.8003 9.37492 5.95927 9.37492 6.12503V9.87506H5.62489C5.45913 9.87506 5.30015 9.94091 5.18294 10.0581C5.06573 10.1753 4.99988 10.3343 4.99988 10.5001C4.99988 10.6658 5.06573 10.8248 5.18294 10.942C5.30015 11.0592 5.45913 11.1251 5.62489 11.1251H9.37492V14.8751C9.37492 15.0408 9.44077 15.1998 9.55798 15.317C9.67519 15.4342 9.83416 15.5001 9.99992 15.5001C10.1657 15.5001 10.3247 15.4342 10.4419 15.317C10.5591 15.1998 10.6249 15.0408 10.6249 14.8751V11.1251H14.375C14.5407 11.1251 14.6997 11.0592 14.8169 10.942C14.9341 10.8248 15 10.6658 15 10.5001C15 10.3343 14.9341 10.1753 14.8169 10.0581C14.6997 9.94091 14.5407 9.87506 14.375 9.87506H10.6249V6.12503Z" fill="white"/>
</svg>
