<svg width="16" height="15" viewBox="0 0 16 15" fill="none" xmlns="http://www.w3.org/2000/svg">
<path d="M4.5 0.00012207C3.70435 0.00012207 2.94129 0.316193 2.37868 0.878802C1.81607 1.44141 1.5 2.20447 1.5 3.00012V5.75812C1.81107 5.54969 2.14701 5.38105 2.5 5.25612V3.00012C2.5 2.46969 2.71071 1.96098 3.08579 1.58591C3.46086 1.21084 3.96957 1.00012 4.5 1.00012H12.5C13.0304 1.00012 13.5391 1.21084 13.9142 1.58591C14.2893 1.96098 14.5 2.46969 14.5 3.00012V11.0001C14.5 11.3731 14.398 11.7221 14.22 12.0201L9.551 7.43212C9.32972 7.21462 9.04645 7.07108 8.74019 7.02129C8.43394 6.97151 8.11978 7.01791 7.841 7.15412C8.014 7.43712 8.157 7.74112 8.265 8.06112C8.35878 8.01114 8.46605 7.99234 8.57124 8.00744C8.67643 8.02254 8.77407 8.07077 8.85 8.14512L13.512 12.7251C13.2053 12.9056 12.8558 13.0005 12.5 13.0001H9.621L10.061 13.4401C10.224 13.6031 10.342 13.7951 10.415 14.0001H12.5C13.2956 14.0001 14.0587 13.6841 14.6213 13.1214C15.1839 12.5588 15.5 11.7958 15.5 11.0001V3.00012C15.5 2.20447 15.1839 1.44141 14.6213 0.878802C14.0587 0.316193 13.2956 0.00012207 12.5 0.00012207H4.5Z" fill="black"/>
<path d="M11 6.00012C11.3978 6.00012 11.7794 5.84209 12.0607 5.56078C12.342 5.27948 12.5 4.89795 12.5 4.50012C12.5 4.1023 12.342 3.72077 12.0607 3.43946C11.7794 3.15816 11.3978 3.00012 11 3.00012C10.6022 3.00012 10.2206 3.15816 9.93934 3.43946C9.65804 3.72077 9.5 4.1023 9.5 4.50012C9.5 4.89795 9.65804 5.27948 9.93934 5.56078C10.2206 5.84209 10.6022 6.00012 11 6.00012ZM11 5.00012C10.8674 5.00012 10.7402 4.94744 10.6464 4.85368C10.5527 4.75991 10.5 4.63273 10.5 4.50012C10.5 4.36751 10.5527 4.24034 10.6464 4.14657C10.7402 4.0528 10.8674 4.00012 11 4.00012C11.1326 4.00012 11.2598 4.0528 11.3536 4.14657C11.4473 4.24034 11.5 4.36751 11.5 4.50012C11.5 4.63273 11.4473 4.75991 11.3536 4.85368C11.2598 4.94744 11.1326 5.00012 11 5.00012Z" fill="black"/>
<path d="M6.803 11.5961C7.33291 10.8875 7.57474 10.0044 7.4798 9.12462C7.38486 8.24485 6.96022 7.43369 6.29132 6.8544C5.62242 6.2751 4.75893 5.97067 3.87462 6.00237C2.99031 6.03407 2.15083 6.39955 1.52513 7.02525C0.899426 7.65095 0.533948 8.49043 0.502249 9.37474C0.470549 10.259 0.774981 11.1225 1.35428 11.7914C1.93357 12.4603 2.74473 12.885 3.6245 12.9799C4.50426 13.0749 5.38734 12.833 6.096 12.3031L8.646 14.8531C8.73975 14.947 8.86696 14.9998 8.99965 14.9999C9.13233 15 9.25961 14.9474 9.3535 14.8536C9.44739 14.7599 9.50018 14.6327 9.50028 14.5C9.50037 14.3673 9.44775 14.24 9.354 14.1461L6.804 11.5961H6.803ZM4 12.0001C3.33696 12.0001 2.70107 11.7367 2.23223 11.2679C1.76339 10.799 1.5 10.1632 1.5 9.50012C1.5 8.83708 1.76339 8.2012 2.23223 7.73235C2.70107 7.26351 3.33696 7.00012 4 7.00012C4.66304 7.00012 5.29893 7.26351 5.76777 7.73235C6.23661 8.2012 6.5 8.83708 6.5 9.50012C6.5 10.1632 6.23661 10.799 5.76777 11.2679C5.29893 11.7367 4.66304 12.0001 4 12.0001Z" fill="black"/>
</svg>
