<svg width="15" height="16" viewBox="0 0 15 16" fill="none" xmlns="http://www.w3.org/2000/svg">
<path d="M7.5 5.5C7.99445 5.5 8.4778 5.64662 8.88892 5.92133C9.30005 6.19603 9.62048 6.58648 9.8097 7.04329C9.99892 7.50011 10.0484 8.00277 9.95196 8.48772C9.8555 8.97268 9.6174 9.41813 9.26777 9.76777C8.91813 10.1174 8.47268 10.3555 7.98773 10.452C7.50277 10.5484 7.00011 10.4989 6.54329 10.3097C6.08648 10.1205 5.69603 9.80005 5.42133 9.38892C5.14662 8.9778 5 8.49445 5 8C5.00075 7.33719 5.26439 6.70174 5.73306 6.23306C6.20174 5.76439 6.83719 5.50075 7.5 5.5V5.5ZM7.5 9.59091C7.81465 9.59091 8.12224 9.4976 8.38386 9.32279C8.64548 9.14798 8.8494 8.89951 8.96981 8.60881C9.09022 8.31811 9.12172 7.99823 9.06034 7.68963C8.99895 7.38102 8.84743 7.09755 8.62494 6.87506C8.40245 6.65256 8.11898 6.50104 7.81037 6.43966C7.50176 6.37827 7.18189 6.40978 6.89119 6.53019C6.60048 6.6506 6.35202 6.85451 6.17721 7.11614C6.0024 7.37776 5.90909 7.68535 5.90909 8C5.90956 8.42179 6.07733 8.82617 6.37558 9.12442C6.67383 9.42267 7.07821 9.59043 7.5 9.59091V9.59091Z" fill="white"/>
<path d="M0.241448 10.0725L1.29181 9.25519C1.10561 8.42765 1.10561 7.57235 1.29181 6.74481L0.241448 5.92753C0.120305 5.83371 0.0384528 5.7022 0.01055 5.55653C-0.0173527 5.41087 0.0105168 5.26057 0.089167 5.13256L1.16737 3.36747C1.24531 3.23904 1.3691 3.14105 1.51655 3.09106C1.66399 3.04106 1.82545 3.04234 1.97199 3.09466L3.24688 3.54613C3.91101 2.97896 4.69451 2.55094 5.54597 2.29013L5.76967 1.02228C5.79499 0.876169 5.87454 0.743356 5.99407 0.647649C6.11359 0.551942 6.26526 0.499599 6.42191 0.500002H8.57825C8.73489 0.499605 8.88655 0.551945 9.00607 0.647645C9.12559 0.743344 9.20515 0.876146 9.23049 1.02225L9.45405 2.29013C10.3055 2.55093 11.089 2.97896 11.7531 3.54613L13.0282 3.0946C13.1747 3.04231 13.3361 3.04106 13.4836 3.09105C13.631 3.14105 13.7547 3.23903 13.8327 3.36744L14.9109 5.13266C14.9895 5.26068 15.0173 5.41098 14.9894 5.55664C14.9615 5.70229 14.8796 5.8338 14.7584 5.92759L13.7082 6.74481C13.8944 7.57235 13.8944 8.42765 13.7082 9.25519L14.7585 10.0725C14.8797 10.1663 14.9615 10.2978 14.9894 10.4435C15.0174 10.5891 14.9895 10.7394 14.9109 10.8674L13.8327 12.6325C13.7547 12.761 13.6309 12.8589 13.4835 12.9089C13.336 12.9589 13.1746 12.9577 13.028 12.9053L11.7531 12.4539C11.089 13.021 10.3055 13.4491 9.45401 13.7099L9.23045 14.9777C9.20512 15.1238 9.12557 15.2566 9.00606 15.3523C8.88655 15.448 8.73488 15.5004 8.57825 15.5H6.42191C6.26527 15.5004 6.11359 15.4481 5.99407 15.3524C5.87455 15.2567 5.795 15.1239 5.76967 14.9777L5.54607 13.7099C4.69461 13.4491 3.91111 13.021 3.24697 12.4539L1.97199 12.9054C1.82546 12.9577 1.66402 12.9589 1.5166 12.9089C1.36918 12.8589 1.24541 12.761 1.16747 12.6326L0.0893658 10.8673C0.0107071 10.7394 -0.0171869 10.5891 0.0106792 10.4435C0.0385452 10.2978 0.120351 10.1663 0.241448 10.0725ZM1.91555 11.8575L3.50611 11.2942L3.74696 11.5234C4.40963 12.1547 5.2385 12.6075 6.14806 12.8351L6.47867 12.9174L6.75788 14.5H8.24201L8.52112 12.9174L8.85173 12.8351C9.76129 12.6075 10.5902 12.1547 11.2528 11.5234L11.4937 11.2942L13.0845 11.8575L13.8264 10.6426L12.5162 9.62306L12.6055 9.31141C12.851 8.45253 12.851 7.54747 12.6055 6.68859L12.5162 6.37697L13.8264 5.35747L13.0843 4.14253L11.4938 4.70578L11.2529 4.4766C10.5903 3.84527 9.76139 3.39248 8.85183 3.16494L8.52122 3.08256L8.24214 1.5H6.75788L6.47877 3.08256L6.14816 3.16494C5.2386 3.39248 4.40973 3.84527 3.74706 4.4766L3.50621 4.70578L1.91565 4.14253L1.17352 5.35744L2.48372 6.37697L2.39445 6.68859C2.14896 7.54747 2.14896 8.45253 2.39445 9.31141L2.48372 9.62306L1.17352 10.6425L1.91555 11.8575Z" fill="white"/>
</svg>
